<?xml version="1.0" encoding="UTF-8" standalone="no"?>
<svg
   xmlns:dc="http://purl.org/dc/elements/1.1/"
   xmlns:cc="http://creativecommons.org/ns#"
   xmlns:rdf="http://www.w3.org/1999/02/22-rdf-syntax-ns#"
   xmlns:svg="http://www.w3.org/2000/svg"
   xmlns="http://www.w3.org/2000/svg"
   xmlns:sodipodi="http://sodipodi.sourceforge.net/DTD/sodipodi-0.dtd"
   xmlns:inkscape="http://www.inkscape.org/namespaces/inkscape"
   viewBox="0 0 64 64"
   enable-background="new 0 0 64 64"
   id="svg2"
   version="1.1"
   inkscape:version="0.91 r13725"
   sodipodi:docname="what3fucks-logo.svg">
  <metadata
     id="metadata26">
    <rdf:RDF>
      <cc:Work
         rdf:about="">
        <dc:format>image/svg+xml</dc:format>
        <dc:type
           rdf:resource="http://purl.org/dc/dcmitype/StillImage" />
        <dc:title></dc:title>
      </cc:Work>
    </rdf:RDF>
  </metadata>
  <defs
     id="defs24" />
  <sodipodi:namedview
     pagecolor="#ffffff"
     bordercolor="#666666"
     borderopacity="1"
     objecttolerance="10"
     gridtolerance="10"
     guidetolerance="10"
     inkscape:pageopacity="0"
     inkscape:pageshadow="2"
     inkscape:window-width="1440"
     inkscape:window-height="836"
     id="namedview22"
     showgrid="false"
     inkscape:snap-bbox="true"
     inkscape:bbox-paths="false"
     inkscape:bbox-nodes="true"
     inkscape:zoom="7.375"
     inkscape:cx="34.590349"
     inkscape:cy="33.860327"
     inkscape:window-x="0"
     inkscape:window-y="0"
     inkscape:window-maximized="1"
     inkscape:current-layer="svg2">
    <inkscape:grid
       type="xygrid"
       id="grid4158" />
  </sodipodi:namedview>
  <path
     d="m13.5 31.5c0-2.6 2.4-4.7 5.3-4.7h.1c2.9 0 6.3 2.1 6.3 4.7l-2.6-25.1c0-2.4 3-4.4 6.9-4.4h.1c3.8 0 6.9 2 6.9 4.4l-1.2 24.6c0-2.6 2.4-4.7 5.3-4.7h.1c2.9 0 5.3 2.1 5.3 4.7v2.7c.5-1.9 2.4-3.2 4.6-2.7 4.5 1.2 3.6 4.8 4.1 8.7.5 4.8 1.7 7.9 1.3 9.6-1 3.7-3.7 3.2-5.1 4.2-1.4 1-1.8 2.6-2.9 3.6-2.2 2-6.2 1.6-9.8 2.5-3.1.8-5.9 2.6-8.3 2.3-2.7-.3-3.4-2.6-6.4-4-3-1.4-7.1-.7-8.3-3.1-2.3-4.8-1.7-23.3-1.7-23.3"
     fill="#ffdd67"
     id="path4"
     style="fill:#361e1e;fill-opacity:1" />
  <g
     fill="#eba352"
     id="g6"
     style="fill:#b54b4b;fill-opacity:1">
    <path
       d="m13.5 31.5c0-1.4.7-2.7 1.8-3.5-1.9 2.4-.6 19.4 1.7 24.2 1.2 2.4 5.3 1.7 8.3 3.1 3 1.4 3.7 3.8 6.4 4 2.4.3 5.2-1.4 8.3-2.1 3.6-.9 6.1-.6 8.3-2.6 1.1-1 1.6-2.5 3.8-3.2 1.6-.5 2.7-1 3.9-2.2 0 0 0 .1 0 .1-1 3.7-3.7 3.2-5.1 4.2-1.4 1-1.8 2.6-2.9 3.6-2.2 2-6.2 1.6-9.8 2.5-3.1.8-5.9 2.6-8.3 2.3-2.7-.3-3.4-2.6-6.4-4-3-1.4-7.1-.7-8.3-3.1-2.3-4.8-1.7-23.3-1.7-23.3"
       id="path8"
       style="fill:#b54b4b;fill-opacity:1" />
    <path
       d="m22.6 5.3c-.9 3.8 2.5 38.4 2.5 38.4 0 2.5 1.3 1.5 1.3-1 0 0-3.6-32.5-2.6-37.3.4-2 1.8-2.6 4.2-3.3 0 0-4.6.2-5.4 3.2"
       id="path10"
       style="fill:#b54b4b;fill-opacity:1" />
    <path
       d="m37 42.3v-13c0-.7.1-1.4.5-2-1.3.9-2.1 2.2-2.1 3.7v13c-.1 2.7 1.6.9 1.6-1.7"
       id="path12"
       style="fill:#b54b4b;fill-opacity:1" />
    <path
       d="m47.4 43.6v-10.4c0-.6.1-1.2.4-1.8-1.1.8-1.9 2-1.9 3.4v10.4c0 2.3 1.5.7 1.5-1.6"
       id="path14"
       style="fill:#b54b4b;fill-opacity:1" />
    <path
       d="m34.4 10.8c.8-5.3-1.7-5.5-4.8-5.5-3.1 0-5.6.2-4.8 5.5.3 2 2.4 2.7 4.8 2.7s4.5-.8 4.8-2.7"
       id="path16"
       style="fill:#b54b4b;fill-opacity:1" />
  </g>
  <path
     d="m34.5 9.9c.8-5.7-1.7-5.9-4.9-5.9-3.2 0-5.7.2-4.9 5.8.3 2.1 2.4 2.8 4.9 2.8 2.5 0 4.6-.7 4.9-2.7"
     fill="#ffe8dc"
     id="path18"
     style="fill:#917272;fill-opacity:1" />
  <path
     d="m15.2 53.6c-3.6-4.2-8.3-6.4-7.1-9.5 1-3 3.1-2.9 5.8-6.3l1.3 15.8"
     fill="#eba352"
     id="path20"
     style="fill:#361e1e;fill-opacity:1" />
</svg>
