<svg id="Layer_1" data-name="Layer 1" xmlns="http://www.w3.org/2000/svg" viewBox="0 0 33.88 81.39"><defs><style>.cls-1{fill:#b54b4b;}.cls-2{fill:#361e1e;}.cls-3{fill:#917272;}</style></defs><title>what3goshdarnits-logo</title><path class="cls-1" d="M5.13,41.77c0.15-.57.33-1.13,0.45-1.71a2.8,2.8,0,0,1,2.29-2.45c1.32-.29,1.62-0.86,1.59-2.12,0-1.56.33-3,1.85-3.83A6.68,6.68,0,0,1,15.58,31c0.15-.62.31-1.24,0.45-1.88a2.91,2.91,0,0,1,2.73-2.33c0.85-.12,1.69-0.26,2.54-0.41a2.91,2.91,0,0,1,3.12,1.73c0.75,1.64,1.57,3.25,2.39,4.94a0.65,0.65,0,0,0,.51-0.84A17,17,0,0,0,27,30c-0.44-2.39-.9-4.78-1.35-7.17q-0.75-4-1.5-8c-0.47-2.57-1-5.14-1.34-7.73a6.55,6.55,0,0,1,.43-2.31A2.18,2.18,0,0,1,25,3.28a2.13,2.13,0,0,0,.7-0.21,6.94,6.94,0,0,1,2,.19,4.19,4.19,0,0,1,1.59,1.18,24.51,24.51,0,0,1,1.56,3.67c1.31,3.72,2.57,7.45,3.85,11.18A9.13,9.13,0,0,1,35.22,21c0.23,1.84.34,3.7,0.58,5.53s0.6,3.78.93,5.67,0.69,3.63,1,5.45c0.36,2.32.65,4.65,1,7,0.06,0.42.2,0.84,0.3,1.25v5.23a2.59,2.59,0,0,0-.17.45c-0.1.51-.15,1-0.26,1.53A17,17,0,0,0,38.11,58a62.82,62.82,0,0,1,.13,6.73A5.9,5.9,0,0,1,35,69.79a2.86,2.86,0,0,0-1.6,1.91c-0.17.86-.3,1.73-0.39,2.6-0.24,2.29-.45,4.59-0.66,6.85-2.23.93-4.37,1.84-6.52,2.72-0.6.25-1.25,0.4-1.87,0.59H19.72l-1.51-.4A35.11,35.11,0,0,1,11.29,81a4.38,4.38,0,0,1-.79-0.52c-1-.85-0.92-2-0.72-3.11a18.68,18.68,0,0,0,.7-3.7,16.14,16.14,0,0,0-.85-4.35c-1-3.15-2.19-6.25-3.21-9.4a22.91,22.91,0,0,1-.94-4.28C5.29,54.08,5.36,52.52,5.3,51a2,2,0,0,0-.17-0.52Q5.13,46.11,5.13,41.77ZM18,73.59v0.19a10.65,10.65,0,0,1-4.51.53,19.84,19.84,0,0,1-2.3-.61c0,1.52-.05,3.11-0.07,4.71a1.15,1.15,0,0,0,1.11,1.41,5.51,5.51,0,0,1,1.38.5c0.81,0.49,1.54,1.13,2.37,1.6a5.82,5.82,0,0,0,3.49.76c2-.19,4.08-0.33,6.11-0.56a8.83,8.83,0,0,0,2.12-.64,0.86,0.86,0,0,0,.37-0.63c0.08-.93.08-1.87,0.16-2.8s0.22-2,.38-3a1.54,1.54,0,0,0-.78-1.81,14.83,14.83,0,0,0-3.53-1.34,2.89,2.89,0,0,1-2-1.43,38.85,38.85,0,0,1-2.42-4.51A21.55,21.55,0,0,1,19,63.07l0.85-.15A2.13,2.13,0,0,0,19.75,62a2.5,2.5,0,0,1-.2-2.88c0.5-1,1-2.08,1.56-3.11a1.18,1.18,0,0,0-.23-1.44,1.32,1.32,0,0,0-1.4-.61A2.65,2.65,0,0,1,18,53.67a15.6,15.6,0,0,1-1.51-.92,1.34,1.34,0,0,0-1.86.21,2.21,2.21,0,0,1-2.19.77c-0.76-.24-1.51-0.51-2.24-0.82a1.45,1.45,0,0,1-.67-0.6C9,51.2,8.42,50.07,7.84,49a1.78,1.78,0,0,0-1.59-1.12,10.86,10.86,0,0,0-.16,1.28,9.25,9.25,0,0,0,.33,3,10.19,10.19,0,0,1,.08,2.63,24.52,24.52,0,0,0,1.44,7C8.71,64,9.6,66.32,10.48,68.61a6.1,6.1,0,0,0,1,1.76,4.86,4.86,0,0,0,3.88,1.54c1.68,0,3.36-.24,5-0.35a1.5,1.5,0,0,1,.52.17,1.27,1.27,0,0,1-.4.31c-1.3.3-2.62,0.55-3.92,0.86a3.38,3.38,0,0,0-.79.42l0.09,0.26H18ZM36.79,55.71L37,55.65c0.21-2.54.5-5.08,0.61-7.62a58.75,58.75,0,0,0-.13-5.89A29.25,29.25,0,0,0,37,38.38c-0.34-1.76-1-3.45-1.17-5.26-0.24-2.23-.78-4.43-1.18-6.65a22.23,22.23,0,0,1-.54-3.54,12.59,12.59,0,0,0-1-5,12.68,12.68,0,0,1-1.14-3.3,14.6,14.6,0,0,0-.72-2.93C30.67,10.12,30,8.6,29.35,7.05a5.07,5.07,0,0,1-.34-1,2.84,2.84,0,0,0-3.78-1.95,2.41,2.41,0,0,0-1.34,1.08,14.89,14.89,0,0,0,0,4.19c0.46,2.59,1.6,5,2,7.65,0.21,1.58.69,3.13,1,4.7,0.3,1.8.47,3.63,0.72,5.44s0.57,3.66.78,5.49a1.13,1.13,0,0,1-.79,1.42,2.27,2.27,0,0,0-1.21,2.51,11.24,11.24,0,0,1,.52,3.81,6.84,6.84,0,0,0,.25,1.6Q27.52,44,28,45.93a2.19,2.19,0,0,0,1.3,1.65,4.57,4.57,0,0,1,1.6,1.2c0.68,0.67,1.36,1.34,2,2a18.08,18.08,0,0,1,1.22,1.39C35,53.35,35.89,54.54,36.79,55.71ZM21.87,56.87a7.32,7.32,0,0,0-1,5.73c0.3,1.32.68,2.61,1.05,3.91A5.42,5.42,0,0,0,24,69.94c2.17,1.36,4.56,1.38,7,1.13a2.31,2.31,0,0,0,.9-0.23,9.3,9.3,0,0,0,4.2-5.16c0.37-1,.58-2.12.88-3.18a5.45,5.45,0,0,0-1-5,15,15,0,0,1-1-1.73,14.61,14.61,0,0,0-1.37-2.4c-1.05-1.22-2.25-2.32-3.41-3.45-0.45-.44-1-0.82-1.44-1.23A2.13,2.13,0,0,0,29,49.89a1.78,1.78,0,0,1-.07,2.27c-0.54.7-1.21,1.3-1.73,2a2.07,2.07,0,0,1-2.72.3c-0.65-.5-1.25-1.07-1.85-1.63a0.7,0.7,0,0,1-.1-0.44,3.75,3.75,0,0,1,1.32-2.88c0.9-.84,1.91-1.58,2.87-2.36V47a4.83,4.83,0,0,0-1.12.07,6.22,6.22,0,0,0-3.65,3.16,3.93,3.93,0,0,0-.4,3.53c1.47,3.35,3.75,5.78,7.57,6.4a9.83,9.83,0,0,1,2,.76,3.06,3.06,0,0,1-2.5.68,7.63,7.63,0,0,1-4.29-2.38C23.57,58.39,22.73,57.69,21.87,56.87Zm4.58-11.51a3.84,3.84,0,0,0,0-.68c-0.17-1.14-.42-2.27-0.53-3.41-0.22-2.39-.37-4.8-0.56-7.2,0-.31-0.08-0.62-0.11-0.94a9.91,9.91,0,0,0-2.28-5,1.73,1.73,0,0,0-1.64-.9,9.74,9.74,0,0,0-3.79,1.53,0.54,0.54,0,0,0-.22.33,15.69,15.69,0,0,0,0,6.77c0.59,2.3,1.54,4.51,2.36,6.76,0.35,1,.77,1.91,1.15,2.86a0.62,0.62,0,0,0,.29-0.5,1.81,1.81,0,0,1,1.57-2.2,4.06,4.06,0,0,0,.38-0.15,1.52,1.52,0,0,1,2.14.75C25.62,44,26,44.6,26.45,45.36Zm-9.57,5.47,0.18-.06c-0.06-.4-0.13-0.8-0.16-1.2a11.78,11.78,0,0,0-.07-1.3,1.66,1.66,0,0,1,1.26-2.19c0.48-.15,1-0.22,1.52-0.34-0.92-2.41-1.91-4.73-2.68-7.13-0.54-1.68-.76-3.47-1.15-5.2-0.28-1.28-.53-1.52-1.8-1.44-2.14.14-3,.52-3.32,2.51-0.23,1.24-.65,2.53.49,3.6a0.82,0.82,0,0,1,.15.3c1,2.56,2,5.11,3,7.68A16.29,16.29,0,0,0,16.88,50.82Zm-3.74-4.09c-0.94-2.63-1.52-5.34-3-7.71a1.37,1.37,0,0,0-1.87-.66,5,5,0,0,1-.69.27,1.57,1.57,0,0,0-1.26,1.49c-0.24,1.73-.36,3.44.69,5a4,4,0,0,1,.15.38,55.83,55.83,0,0,0,3,5.47c1.09,1.59,2.14,2.1,3.95,1.47a1.44,1.44,0,0,0,1.1-1c-0.81.14-1.58,0.29-2.35,0.41A1.43,1.43,0,0,1,11,50.41c0-.22-0.1-0.44-0.12-0.66C10.71,48.36,10.93,46.73,13.14,46.73Zm10.4,5.81a2,2,0,0,0,.48.56c0.34,0.21.76,0.28,1.12,0.45A0.52,0.52,0,0,0,26,53.27a3.23,3.23,0,0,1,2-2,0.82,0.82,0,0,0,.45-0.63,12.42,12.42,0,0,0-1-1.89,0.76,0.76,0,0,0-.62-0.15C25.42,48.83,23.56,51,23.54,52.54ZM20,47.31a14.19,14.19,0,0,0-1.81.6,1.25,1.25,0,0,0-.7.75,11.28,11.28,0,0,0,.4,2.26,1.14,1.14,0,0,0,1.42.93c0.54-.14,1.74-1.69,1.59-2.22A24.36,24.36,0,0,0,20,47.31ZM22,47.65a3,3,0,0,0,.86-0.17c0.78-.47,1.52-1,2.31-1.47s0.33-.84.18-1.27a0.91,0.91,0,0,0-1-.69L22,44.42v3.23Zm-8.18.43c-0.68.3-1.28,0.55-1.88,0.82a0.81,0.81,0,0,0-.47,1A1.16,1.16,0,0,0,12.56,51a4.7,4.7,0,0,0,1.77-.69,0.71,0.71,0,0,0,.1-0.61C14.26,49.15,14,48.64,13.8,48.08Zm15.69,28.6H29.26c-0.2,1.21-.41,2.42-0.61,3.63a0.7,0.7,0,0,0,.17.31,0.66,0.66,0,0,0,.28-0.19C29.25,79.18,29.37,77.93,29.49,76.69Z" transform="translate(-5.13 -3.07)"/><path class="cls-2" d="M36.79,55.71L37,55.65c0.21-2.54.5-5.08,0.61-7.62a58.75,58.75,0,0,0-.13-5.89A29.25,29.25,0,0,0,37,38.38c-0.34-1.76-1-3.45-1.17-5.26-0.24-2.23-.78-4.43-1.18-6.65a22.23,22.23,0,0,1-.54-3.54,12.59,12.59,0,0,0-1-5,12.68,12.68,0,0,1-1.14-3.3,14.6,14.6,0,0,0-.72-2.93C30.67,10.12,30,8.6,29.35,7.05a5.07,5.07,0,0,1-.34-1,2.84,2.84,0,0,0-3.78-1.95,2.41,2.41,0,0,0-1.34,1.08,14.89,14.89,0,0,0,0,4.19c0.46,2.59,1.6,5,2,7.65,0.21,1.58.69,3.13,1,4.7,0.3,1.8.47,3.63,0.72,5.44s0.57,3.66.78,5.49a1.13,1.13,0,0,1-.79,1.42,2.27,2.27,0,0,0-1.21,2.51,11.24,11.24,0,0,1,.52,3.81,6.84,6.84,0,0,0,.25,1.6Q27.52,44,28,45.93a2.19,2.19,0,0,0,1.3,1.65,4.57,4.57,0,0,1,1.6,1.2c0.68,0.67,1.36,1.34,2,2a18.08,18.08,0,0,1,1.22,1.39C35,53.35,35.89,54.54,36.79,55.71Z" transform="translate(-5.13 -3.07)"/><path class="cls-2" d="M26.45,45.36a3.84,3.84,0,0,0,0-.68c-0.17-1.14-.42-2.27-0.53-3.41-0.22-2.39-.37-4.8-0.56-7.2,0-.31-0.08-0.62-0.11-0.94a9.91,9.91,0,0,0-2.28-5,1.73,1.73,0,0,0-1.64-.9,9.74,9.74,0,0,0-3.79,1.53,0.54,0.54,0,0,0-.22.33,15.69,15.69,0,0,0,0,6.77c0.59,2.3,1.54,4.51,2.36,6.76,0.35,1,.77,1.91,1.15,2.86a0.62,0.62,0,0,0,.29-0.5,1.81,1.81,0,0,1,1.57-2.2,4.06,4.06,0,0,0,.38-0.15,1.52,1.52,0,0,1,2.14.75C25.62,44,26,44.6,26.45,45.36Z" transform="translate(-5.13 -3.07)"/><path class="cls-2" d="M16.88,50.82l0.18-.06c-0.06-.4-0.13-0.8-0.16-1.2a11.78,11.78,0,0,0-.07-1.3,1.66,1.66,0,0,1,1.26-2.19c0.48-.15,1-0.22,1.52-0.34-0.92-2.41-1.91-4.73-2.68-7.13-0.54-1.68-.76-3.47-1.15-5.2-0.28-1.28-.53-1.52-1.8-1.44-2.14.14-3,.52-3.32,2.51-0.23,1.24-.65,2.53.49,3.6a0.82,0.82,0,0,1,.15.3c1,2.56,2,5.11,3,7.68A16.29,16.29,0,0,0,16.88,50.82Z" transform="translate(-5.13 -3.07)"/><path class="cls-2" d="M13.14,46.73c-0.94-2.63-1.52-5.34-3-7.71a1.37,1.37,0,0,0-1.87-.66,5,5,0,0,1-.69.27,1.57,1.57,0,0,0-1.26,1.49c-0.24,1.73-.36,3.44.69,5a4,4,0,0,1,.15.38,55.83,55.83,0,0,0,3,5.47c1.09,1.59,2.14,2.1,3.95,1.47a1.44,1.44,0,0,0,1.1-1c-0.81.14-1.58,0.29-2.35,0.41A1.43,1.43,0,0,1,11,50.41c0-.22-0.1-0.44-0.12-0.66C10.71,48.36,10.93,46.73,13.14,46.73Z" transform="translate(-5.13 -3.07)"/><path class="cls-2" d="M18,73.59v0.19a10.65,10.65,0,0,1-4.51.53,19.84,19.84,0,0,1-2.3-.61c0,1.52-.05,3.11-0.07,4.71a1.15,1.15,0,0,0,1.11,1.41,5.51,5.51,0,0,1,1.38.5c0.81,0.49,1.54,1.13,2.37,1.6a5.82,5.82,0,0,0,3.49.76c2-.19,4.08-0.33,6.11-0.56a8.83,8.83,0,0,0,2.12-.64,0.86,0.86,0,0,0,.37-0.63c0.08-.93.08-1.87,0.16-2.8s0.22-2,.38-3a1.54,1.54,0,0,0-.78-1.81,14.83,14.83,0,0,0-3.53-1.34,2.89,2.89,0,0,1-2-1.43,38.85,38.85,0,0,1-2.42-4.51A21.55,21.55,0,0,1,19,63.07l0.85-.15A2.13,2.13,0,0,0,19.75,62a2.5,2.5,0,0,1-.2-2.88c0.5-1,1-2.08,1.56-3.11a1.18,1.18,0,0,0-.23-1.44,1.32,1.32,0,0,0-1.4-.61A2.65,2.65,0,0,1,18,53.67a15.6,15.6,0,0,1-1.51-.92,1.34,1.34,0,0,0-1.86.21,2.21,2.21,0,0,1-2.19.77c-0.76-.24-1.51-0.51-2.24-0.82a1.45,1.45,0,0,1-.67-0.6C9,51.2,8.42,50.07,7.84,49a1.78,1.78,0,0,0-1.59-1.12,10.86,10.86,0,0,0-.16,1.28,9.25,9.25,0,0,0,.33,3,10.19,10.19,0,0,1,.08,2.63,24.52,24.52,0,0,0,1.44,7C8.71,64,9.6,66.32,10.48,68.61a6.1,6.1,0,0,0,1,1.76,4.86,4.86,0,0,0,3.88,1.54c1.68,0,3.36-.24,5-0.35a1.5,1.5,0,0,1,.52.17,1.27,1.27,0,0,1-.4.31c-1.3.3-2.62,0.55-3.92,0.86a3.38,3.38,0,0,0-.79.42l0.09,0.26H18Z" transform="translate(-5.13 -3.07)"/><path class="cls-2" d="M21.87,56.87a7.32,7.32,0,0,0-1,5.73c0.3,1.32.68,2.61,1.05,3.91A5.42,5.42,0,0,0,24,69.94c2.17,1.36,4.56,1.38,7,1.13a2.31,2.31,0,0,0,.9-0.23,9.3,9.3,0,0,0,4.2-5.16c0.37-1,.58-2.12.88-3.18a5.45,5.45,0,0,0-1-5,15,15,0,0,1-1-1.73,14.61,14.61,0,0,0-1.37-2.4c-1.05-1.22-2.25-2.32-3.41-3.45-0.45-.44-1-0.82-1.44-1.23A2.13,2.13,0,0,0,29,49.89a1.78,1.78,0,0,1-.07,2.27c-0.54.7-1.21,1.3-1.73,2a2.07,2.07,0,0,1-2.72.3c-0.65-.5-1.25-1.07-1.85-1.63a0.7,0.7,0,0,1-.1-0.44,3.75,3.75,0,0,1,1.32-2.88c0.9-.84,1.91-1.58,2.87-2.36V47a4.83,4.83,0,0,0-1.12.07,6.22,6.22,0,0,0-3.65,3.16,3.93,3.93,0,0,0-.4,3.53c1.47,3.35,3.75,5.78,7.57,6.4a9.83,9.83,0,0,1,2,.76,3.06,3.06,0,0,1-2.5.68,7.63,7.63,0,0,1-4.29-2.38C23.57,58.39,22.73,57.69,21.87,56.87Z" transform="translate(-5.13 -3.07)"/><path class="cls-2" d="M29.49,76.69H29.26c-0.2,1.21-.41,2.42-0.61,3.63a0.7,0.7,0,0,0,.17.31,0.66,0.66,0,0,0,.28-0.19C29.25,79.18,29.37,77.93,29.49,76.69Z" transform="translate(-5.13 -3.07)"/><path class="cls-3" d="M13.8,48.08c-0.68.3-1.28,0.55-1.88,0.82a0.81,0.81,0,0,0-.47,1A1.16,1.16,0,0,0,12.56,51a4.7,4.7,0,0,0,1.77-.69,0.71,0.71,0,0,0,.1-0.61C14.26,49.15,14,48.64,13.8,48.08Z" transform="translate(-5.13 -3.07)"/><path class="cls-3" d="M20,47.31a14.19,14.19,0,0,0-1.81.6,1.25,1.25,0,0,0-.7.75,11.28,11.28,0,0,0,.4,2.26,1.14,1.14,0,0,0,1.42.93c0.54-.14,1.74-1.69,1.59-2.22A24.36,24.36,0,0,0,20,47.31Z" transform="translate(-5.13 -3.07)"/><path class="cls-3" d="M22,47.65a3,3,0,0,0,.86-0.17c0.78-.47,1.52-1,2.31-1.47s0.33-.84.18-1.27a0.91,0.91,0,0,0-1-.69L22,44.42v3.23Z" transform="translate(-5.13 -3.07)"/><path class="cls-3" d="M23.54,52.54a2,2,0,0,0,.48.56c0.34,0.21.76,0.28,1.12,0.45A0.52,0.52,0,0,0,26,53.27a3.23,3.23,0,0,1,2-2,0.82,0.82,0,0,0,.45-0.63,12.42,12.42,0,0,0-1-1.89,0.76,0.76,0,0,0-.62-0.15C25.42,48.83,23.56,51,23.54,52.54Z" transform="translate(-5.13 -3.07)"/></svg>